<svg width="180" height="180" viewBox="0 0 512 512" xmlns="http://www.w3.org/2000/svg">
<defs>
  <clipPath id="g"><circle cx="256" cy="256" r="245"/></clipPath>
  <radialGradient id="bg" cx="45%" cy="38%" r="70%">
    <stop offset="0%" stop-color="#1c2d52"/>
    <stop offset="100%" stop-color="#080d1a"/>
  </radialGradient>
</defs>
<circle cx="256" cy="256" r="245" fill="url(#bg)"/>
<ellipse cx="256" cy="256" rx="245" ry="245" fill="none" stroke="#1a2e5a" stroke-width="0.8"/>
<ellipse cx="256" cy="256" rx="185" ry="245" fill="none" stroke="#1a2e5a" stroke-width="0.6"/>
<ellipse cx="256" cy="256" rx="125" ry="245" fill="none" stroke="#1a2e5a" stroke-width="0.6"/>
<ellipse cx="256" cy="256" rx="63"  ry="245" fill="none" stroke="#1a2e5a" stroke-width="0.5"/>
<line x1="11" y1="256" x2="501" y2="256" stroke="#1a2e5a" stroke-width="0.6"/>
<ellipse cx="256" cy="256" rx="245" ry="100" fill="none" stroke="#1a2e5a" stroke-width="0.5"/>
<ellipse cx="256" cy="256" rx="245" ry="172" fill="none" stroke="#1a2e5a" stroke-width="0.5"/>
<path d="M128,122 Q145,108 165,103 Q188,98 210,102 Q230,106 244,118 Q256,130 260,148 Q263,165 255,182 Q245,198 228,206 Q208,214 186,212 Q163,210 146,196 Q128,180 123,160 Q118,140 128,122 Z" fill="#1e3d6a" stroke="#2a4e80" stroke-width="0.7" clip-path="url(#g)"/>
<path d="M260,210 Q272,204 283,212 Q292,224 290,242 Q285,258 274,265 Q262,269 252,261 Q241,248 240,232 Q238,216 250,210 Z" fill="#1e3d6a" stroke="#2a4e80" stroke-width="0.6" clip-path="url(#g)"/>
<ellipse cx="362" cy="158" rx="5" ry="16" fill="#254d82" stroke="#3060a0" stroke-width="1.0" transform="rotate(-28,362,158)" clip-path="url(#g)"/>
<ellipse cx="352" cy="174" rx="3" ry="10" fill="#254d82" stroke="#3060a0" stroke-width="0.8" transform="rotate(-22,352,174)" clip-path="url(#g)"/>
<path d="M60,152 Q78,136 102,130 Q126,123 150,128 Q172,133 185,148 Q196,163 197,182 Q196,200 184,214 Q168,226 148,228 Q126,230 106,218 Q85,204 76,183 Q67,162 60,152 Z" fill="#1e3d6a" stroke="#2a4e80" stroke-width="0.6" clip-path="url(#g)"/>
<path d="M100,222 Q116,212 132,216 Q145,225 144,244 Q140,260 128,266 Q114,268 104,256 Q95,242 100,222 Z" fill="#1e3d6a" stroke="#2a4e80" stroke-width="0.6" clip-path="url(#g)"/>
<path d="M396,265 Q414,256 434,260 Q450,268 456,283 Q460,300 453,316 Q444,330 428,336 Q410,340 394,330 Q378,318 376,300 Q374,282 396,265 Z" fill="#1e3d6a" stroke="#2a4e80" stroke-width="0.6" clip-path="url(#g)"/>
<path d="M175,215 Q190,208 204,214 Q215,225 214,244 Q210,260 198,265 Q185,268 175,257 Q166,244 168,228 Z" fill="#1e3d6a" stroke="#2a4e80" stroke-width="0.5" clip-path="url(#g)"/>

<!-- 起点: 日本 -->
<circle cx="362" cy="162" r="8" fill="#ff4d6d"/>
<circle cx="362" cy="162" r="14" fill="none" stroke="#ff4d6d" stroke-width="1.8" opacity="0.55"/>
<circle cx="362" cy="162" r="22" fill="none" stroke="#ff4d6d" stroke-width="0.8" opacity="0.22"/>

<!-- 赤線: 旅行 -->
<path d="M362,162 Q335,128 310,148" fill="none" stroke="#ff4d6d" stroke-width="2.8" stroke-linecap="round" clip-path="url(#g)"/>
<path d="M362,162 Q354,140 348,152" fill="none" stroke="#ff4d6d" stroke-width="2.0" stroke-linecap="round" clip-path="url(#g)"/>
<path d="M362,162 Q358,168 350,180" fill="none" stroke="#ff4d6d" stroke-width="1.8" stroke-linecap="round" clip-path="url(#g)"/>
<path d="M362,162 Q392,202 416,278" fill="none" stroke="#ff4d6d" stroke-width="2.4" stroke-linecap="round" clip-path="url(#g)"/>

<!-- 白線: 仕事 -->
<path d="M362,162 Q310,138 268,210" fill="none" stroke="white" stroke-width="2.0" stroke-linecap="round" clip-path="url(#g)"/>
<path d="M362,162 Q292,88 210,120" fill="none" stroke="white" stroke-width="2.4" stroke-linecap="round" clip-path="url(#g)"/>
<path d="M362,162 Q280,78 188,128" fill="none" stroke="white" stroke-width="1.6" stroke-linecap="round" clip-path="url(#g)"/>
<path d="M362,162 Q285,82 200,115" fill="none" stroke="white" stroke-width="2.0" stroke-linecap="round" clip-path="url(#g)"/>
<path d="M362,162 Q288,76 196,98" fill="none" stroke="white" stroke-width="1.4" stroke-linecap="round" clip-path="url(#g)"/>
<path d="M362,162 Q418,96 468,138" fill="none" stroke="white" stroke-width="2.6" stroke-linecap="round" clip-path="url(#g)"/>
<path d="M362,162 Q422,88 472,115" fill="none" stroke="white" stroke-width="2.0" stroke-linecap="round" clip-path="url(#g)"/>
<path d="M362,162 Q415,78 466,102" fill="none" stroke="white" stroke-width="1.4" stroke-linecap="round" clip-path="url(#g)"/>
<path d="M362,162 Q288,112 196,180 Q155,208 128,268" fill="none" stroke="white" stroke-width="1.6" stroke-linecap="round" clip-path="url(#g)"/>

<!-- 終点ドット 赤 -->
<circle cx="310" cy="148" r="4.5" fill="#ff4d6d"/>
<circle cx="348" cy="152" r="3.5" fill="#ff4d6d"/>
<circle cx="350" cy="180" r="3.0" fill="#ff4d6d"/>
<circle cx="416" cy="278" r="4.5" fill="#ff4d6d"/>
<!-- 終点ドット 白 -->
<circle cx="268" cy="210" r="4.0" fill="white"/>
<circle cx="210" cy="120" r="4.0" fill="white"/>
<circle cx="188" cy="128" r="3.0" fill="white"/>
<circle cx="200" cy="115" r="3.5" fill="white"/>
<circle cx="196" cy="98"  r="2.8" fill="white"/>
<circle cx="468" cy="138" r="4.5" fill="white"/>
<circle cx="472" cy="115" r="4.0" fill="white"/>
<circle cx="466" cy="102" r="3.0" fill="white"/>
<circle cx="128" cy="268" r="3.5" fill="white"/>

<!-- 外枠 -->
<circle cx="256" cy="256" r="245" fill="none" stroke="#2a4a8a" stroke-width="2.0"/>
</svg>